<svg width="51" height="77" viewBox="0 0 51 77" fill="none" xmlns="http://www.w3.org/2000/svg">
<path d="M45.8272 9.65335L30.8719 5.32316M45.8272 9.65335L41.2176 24.6299M45.8272 9.65335L27.8177 19.4533" stroke="#FAD02C" stroke-width="8" stroke-linecap="round" stroke-linejoin="round"/>
<ellipse rx="0.872641" ry="0.87599" transform="matrix(0.864086 -0.503345 0.497587 0.867414 45.6086 75.8009)" fill="#FAD02C"/>
<ellipse rx="0.872641" ry="0.875992" transform="matrix(0.864085 -0.503346 0.497585 0.867415 34.2862 74.9232)" fill="#FAD02C"/>
<ellipse rx="1.74528" ry="1.75198" transform="matrix(0.864085 -0.503346 0.497585 0.867415 23.2828 71.734)" fill="#FAD02C"/>
<ellipse rx="1.74529" ry="1.75199" transform="matrix(0.864085 -0.503346 0.497585 0.867415 13.7022 67.3456)" fill="#FAD02C"/>
<ellipse rx="2.61793" ry="2.62798" transform="matrix(0.864085 -0.503346 0.497585 0.867415 3.56975 47.4807)" fill="#FAD02C"/>
<ellipse rx="2.61792" ry="2.62798" transform="matrix(0.864085 -0.503346 0.497585 0.867415 6.18267 59.768)" fill="#FAD02C"/>
<ellipse rx="3.49057" ry="3.50397" transform="matrix(0.864085 -0.503346 0.497586 0.867415 16.953 26.7381)" fill="#FAD02C"/>
<ellipse rx="3.49057" ry="3.50397" transform="matrix(0.864085 -0.503346 0.497586 0.867415 8.24344 35.5148)" fill="#FAD02C"/>
</svg>
