<svg width="87" height="118" viewBox="0 0 87 118" fill="none" xmlns="http://www.w3.org/2000/svg">
<path d="M30.9141 46.1016H27.9141V49.1016V66.75V69.75H30.9141H42.4453C46.5372 69.75 49.3339 70.7181 51.2081 72.2856C52.8077 73.6234 54 76.2071 54 80.9531C54 83.7834 53.0649 85.95 51.2259 87.6901C49.4187 89.3555 46.8832 90.3281 43.2891 90.3281C40.2637 90.3281 37.8847 89.4135 35.9535 87.6611C33.9869 85.8767 33.1406 83.9408 33.1406 81.7266V78.7266H30.1406H6.30469H3.30469V81.7266C3.30469 88.0336 4.92902 93.7647 8.21845 98.8294L8.22233 98.8353L8.22623 98.8413C11.5411 103.893 16.3582 107.774 22.5092 110.547L22.5227 110.553L22.5362 110.559C28.7062 113.268 35.3542 114.609 42.4453 114.609C54.3603 114.609 64.302 111.748 71.9935 105.748C79.7747 99.679 83.6953 91.4832 83.6953 81.4453C83.6953 74.9944 81.9954 69.3721 78.4295 64.7762C76.1077 61.7528 73.2202 59.2753 69.8099 57.3269C72.9096 55.2135 75.4794 52.7175 77.4708 49.8186C80.503 45.4261 82.0781 40.6682 82.0781 35.6016C82.0781 25.6901 78.476 17.6409 71.1767 11.812C63.9641 6.05229 54.2692 3.35156 42.4453 3.35156C35.6883 3.35156 29.4086 4.6203 23.6478 7.19649C17.9204 9.73175 13.3245 13.3353 9.97701 18.0427C6.60033 22.7911 4.92188 28.209 4.92188 34.1953V37.1953H7.92188H31.6172H34.6172V34.1953C34.6172 32.4751 35.2804 31.04 36.9193 29.7314C38.7022 28.3447 40.7819 27.6328 43.2891 27.6328C46.5588 27.6328 48.6737 28.5334 50.0742 29.9651L50.0858 29.9769L50.0974 29.9885C51.5685 31.4595 52.3828 33.4005 52.3828 36.0938C52.3828 39.9508 51.402 42.2963 49.962 43.7057C48.5102 45.1268 46.0769 46.1016 42.0938 46.1016H30.9141Z" fill="#FAD02C" stroke="#FAD02C" stroke-width="6"/>
</svg>
