<svg width="87" height="116" viewBox="0 0 87 116" fill="none" xmlns="http://www.w3.org/2000/svg">
<path d="M80.2734 112.852H83.2734V109.852V91.5703V88.5703H80.2734H46.5527L55.4004 78.3578C62.4204 71.3342 67.5997 65.6398 70.8574 61.3125C74.1616 56.9388 76.6588 52.6962 78.2824 48.5867L78.2869 48.575C79.9193 44.392 80.7422 40.0851 80.7422 35.6719C80.7422 25.438 77.5001 17.1841 70.6918 11.384C64.0088 5.65038 54.7046 3 43.2188 3C35.8768 3 29.1473 4.60267 23.0947 7.85787C17.0455 11.1112 12.2791 15.6648 8.854 21.4906C5.43506 27.2589 3.72656 33.5765 3.72656 40.3828V43.3828H6.72656H30.4922H33.4922V40.3828C33.4922 36.2909 34.4869 33.1328 36.2805 30.704L36.287 30.6952L36.2934 30.6864C38.0185 28.3144 40.0721 27.2812 42.6562 27.2812C45.6393 27.2812 47.4957 28.1854 48.7226 29.6517C50.0221 31.2047 50.9062 33.7568 50.9062 37.7812C50.9062 39.7898 50.1427 42.4669 48.2396 45.9101C46.359 49.3126 43.4787 53.2608 39.5272 57.7649L6.66226 92.3152L5.83594 93.1839V94.3828V109.852V112.852H8.83594H80.2734Z" fill="#FAD02C" stroke="#FAD02C" stroke-width="6"/>
</svg>
